<svg preserveAspectRatio="none" overflow="visible" style="display: block;" width="13.3314" height="9.42655" viewBox="0 0 13.3314 9.42655" fill="none" xmlns="http://www.w3.org/2000/svg">
<path id="Vector" fill-rule="evenodd" clip-rule="evenodd" d="M1.0719 4.87115C1.02903 4.78595 1.0116 4.73521 1.00458 4.71328C1.0116 4.69135 1.02903 4.64061 1.0719 4.55541C1.13851 4.42301 1.24373 4.25188 1.38855 4.05328C1.67748 3.65701 2.10297 3.18013 2.63308 2.72139C3.70259 1.79588 5.13141 1 6.66569 1C8.20003 1 9.62883 1.79588 10.6984 2.72139C11.2284 3.18013 11.654 3.65701 11.9429 4.05328C12.0877 4.25188 12.1929 4.42301 12.2595 4.55541C12.3024 4.64061 12.3198 4.69135 12.3268 4.71328C12.3198 4.73521 12.3024 4.78595 12.2595 4.87115C12.1929 5.00355 12.0877 5.17468 11.9429 5.37328C11.654 5.76955 11.2284 6.24641 10.6984 6.70515C9.62883 7.63068 8.20003 8.42655 6.66569 8.42655C5.13141 8.42655 3.70259 7.63068 2.63308 6.70515C2.10297 6.24641 1.67748 5.76955 1.38855 5.37328C1.24373 5.17468 1.13851 5.00355 1.0719 4.87115ZM6.66569 0C4.79477 0 3.14074 0.959646 1.97871 1.96522C1.39305 2.47202 0.915593 3.00458 0.580527 3.46415C0.41334 3.69341 0.276293 3.91181 0.178633 4.10588C0.0915399 4.27895 0 4.50041 0 4.71328C0 4.92615 0.0915399 5.14761 0.178633 5.32068C0.276293 5.51475 0.41334 5.73315 0.580527 5.96241C0.915593 6.42195 1.39305 6.95455 1.97871 7.46135C3.14074 8.46688 4.79477 9.42655 6.66569 9.42655C8.53663 9.42655 10.1907 8.46688 11.3527 7.46135C11.9384 6.95455 12.4158 6.42195 12.7509 5.96241C12.9181 5.73315 13.0551 5.51475 13.1528 5.32068C13.2399 5.14761 13.3314 4.92615 13.3314 4.71328C13.3314 4.50041 13.2399 4.27895 13.1528 4.10588C13.0551 3.91181 12.9181 3.69341 12.7509 3.46415C12.4158 3.00458 11.9384 2.47202 11.3527 1.96522C10.1907 0.959646 8.53663 0 6.66569 0ZM5.16571 4.71328C5.16571 3.88481 5.83729 3.21325 6.66569 3.21325C7.49416 3.21325 8.16569 3.88481 8.16569 4.71328C8.16569 5.54168 7.49416 6.21328 6.66569 6.21328C5.83729 6.21328 5.16571 5.54168 5.16571 4.71328ZM6.66569 2.21325C5.28499 2.21325 4.16571 3.33254 4.16571 4.71328C4.16571 6.09395 5.28499 7.21328 6.66569 7.21328C8.04643 7.21328 9.16569 6.09395 9.16569 4.71328C9.16569 3.33254 8.04643 2.21325 6.66569 2.21325Z" fill="#1A1A1A"/>
</svg>
